<svg xmlns="http://www.w3.org/2000/svg" viewBox="0 0 512 512" width="512" height="512" role="img" aria-label="Dokkani logo">
  <!-- Background (optional) -->
  <rect width="100%" height="100%" fill="transparent"></rect>

  <!-- Awning (orange) -->
  <g transform="translate(56,48)">
    <path d="M24 72h352v-48c0-8-6.5-16-15-16H39c-8.5 0-15 8-15 16v48z" fill="#FF8C1A"></path>
    <!-- scallops -->
    <g fill="#FF8C1A">
      <path d="M56 72a32 32 0 0 0 64 0" transform="translate(0,0)"></path>
      <path d="M136 72a32 32 0 0 0 64 0" transform="translate(0,0)"></path>
      <path d="M216 72a32 32 0 0 0 64 0" transform="translate(0,0)"></path>
      <path d="M296 72a32 32 0 0 0 64 0" transform="translate(0,0)"></path>
    </g>
  </g>

  <!-- Cart body (blue) -->
  <g transform="translate(56,144)">
    <!-- basket -->
    <path d="M24 40h320l-32 144H104L24 40z" fill="#0B4F8A" rx="8"></path>
    <!-- handle -->
    <rect x="0" y="0" width="40" height="24" rx="8" fill="#0B4F8A" transform="translate(-8,16) rotate(-10 12 12)"></rect>
    <!-- horizontal bar -->
    <rect x="48" y="160" width="248" height="20" rx="10" fill="#0B4F8A"></rect>
    <!-- wheels -->
    <circle cx="96" cy="212" r="28" fill="#0B4F8A"></circle>
    <circle cx="272" cy="212" r="28" fill="#0B4F8A"></circle>
  </g>

  <!-- Brand name -->

</svg>
